<?xml version="1.0" encoding="UTF-8" standalone="no"?>
<svg
   style="isolation:isolate"
   viewBox="0 0 48 48"
   width="48pt"
   height="48pt"
   version="1.1"
   id="svg2"
   xml:space="preserve"
   sodipodi:docname="io.github.kaedras.ModOrganizer.svg"
   inkscape:version="1.4.3 (0d15f75042, 2025-12-25)"
   xmlns:inkscape="http://www.inkscape.org/namespaces/inkscape"
   xmlns:sodipodi="http://sodipodi.sourceforge.net/DTD/sodipodi-0.dtd"
   xmlns="http://www.w3.org/2000/svg"
   xmlns:svg="http://www.w3.org/2000/svg"><sodipodi:namedview
     id="namedview1"
     pagecolor="#ffffff"
     bordercolor="#000000"
     borderopacity="0.25"
     inkscape:showpageshadow="2"
     inkscape:pageopacity="0.0"
     inkscape:pagecheckerboard="0"
     inkscape:deskcolor="#d1d1d1"
     inkscape:document-units="pt"
     inkscape:zoom="18.171875"
     inkscape:cx="26.717111"
     inkscape:cy="31.119518"
     inkscape:window-width="2560"
     inkscape:window-height="1372"
     inkscape:window-x="0"
     inkscape:window-y="0"
     inkscape:window-maximized="1"
     inkscape:current-layer="svg2" /><defs
     id="defs2" /><g
     id="layer1"
     style="display:inline"
     transform="translate(1.7207427e-5,0.8)"><ellipse
       style="display:inline;isolation:isolate;fill:#000000;stroke-width:0.753892"
       id="path3"
       cx="34.125"
       cy="23.174999"
       rx="13.125"
       ry="13.275" /><path
       style="display:inline;isolation:isolate;fill:#000000;stroke-width:0.75"
       id="rect2"
       width="15.771738"
       height="19.810833"
       x="3.0182614"
       y="14.387535"
       transform="matrix(1.7880084,0,0,1.3401759,-4.7216937,-9.3818273)"
       d="m 5.6150107,14.387535 h 5.8422733 a 7.3327157,7.3327157 45 0 1 7.332715,7.332716 v 10.854943 a 1.6231743,1.6231743 135 0 1 -1.623174,1.623174 H 5.8333846 A 2.8151232,2.8151232 45 0 1 3.0182614,31.383245 V 16.984284 a 2.5967493,2.5967493 135 0 1 2.5967493,-2.596749 z" /></g><g
     id="layer2"
     style="display:inline"
     transform="translate(1.7207427e-5,0.9)"><path
       style="display:inline;isolation:isolate;fill:#3296be;fill-opacity:1;stroke-width:0.780669"
       id="rect4"
       width="21.825001"
       height="19.049999"
       x="4.4250002"
       y="13.65"
       d="M 4.4250002,13.65 H 16.492118 a 9.757883,9.757883 45 0 1 9.757883,9.757883 v 9.292116 H 4.4250002 Z" /><ellipse
       style="display:inline;fill:#3296be;fill-opacity:1;stroke-width:0.845335"
       id="path7"
       cx="34.012497"
       cy="23.174999"
       rx="9.562501"
       ry="9.5249996" /></g></svg>
